<?xml version="1.0" encoding="utf-8"?><svg xmlns="http://www.w3.org/2000/svg" xmlns:xlink="http://www.w3.org/1999/xlink" width="1440" height="691" preserveAspectRatio="xMidYMid" viewBox="0 0 1440 691" style="z-index:1;margin-right:-2px;display:block;animation-play-state:paused" ><g transform="translate(720,345.5) scale(1,1) translate(-720,-345.5)" style="transform:matrix(1, 0, 0, 1, 0, 0);animation-play-state:paused" ><linearGradient id="lg-0.5070050122885417" x1="0" x2="1" y1="0" y2="0" style="animation-play-state:paused" ><stop stop-color="#8fd3f4" offset="0" style="animation-play-state:paused" ></stop>

  
<stop stop-color="#84fab0" offset="1" style="animation-play-state:paused" ></stop></linearGradient>
<path d="M 0 0 L 0 601.171 Q 144 630.062 288 600.366 T 576 481.858 T 864 473.44 T 1152 404.525 T 1440 275.764 L 1440 0 Z" fill="url(#lg-0.5070050122885417)" opacity="0.4" style="opacity:0.4;animation-play-state:paused" ></path>
<path d="M 0 0 L 0 609.498 Q 144 586.307 288 552.489 T 576 483.14 T 864 448.691 T 1152 386.748 T 1440 335.32 L 1440 0 Z" fill="url(#lg-0.5070050122885417)" opacity="0.4" style="opacity:0.4;animation-play-state:paused" ></path>
<path d="M 0 0 L 0 597.642 Q 144 666.524 288 622.367 T 576 443.414 T 864 437.791 T 1152 378.977 T 1440 332.652 L 1440 0 Z" fill="url(#lg-0.5070050122885417)" opacity="0.4" style="opacity:0.4;animation-play-state:paused" ></path>
<path d="M 0 0 L 0 648.298 Q 144 596.28 288 556.402 T 576 455.288 T 864 435.571 T 1152 378.441 T 1440 289.357 L 1440 0 Z" fill="url(#lg-0.5070050122885417)" opacity="0.4" style="opacity:0.4;animation-play-state:paused" ></path>
<path d="M 0 0 L 0 650.417 Q 144 574.516 288 552.166 T 576 500.627 T 864 476.211 T 1152 383.15 T 1440 288.428 L 1440 0 Z" fill="url(#lg-0.5070050122885417)" opacity="0.4" style="opacity:0.4;animation-play-state:paused" ></path></g></svg>